<svg xmlns="http://www.w3.org/2000/svg" viewBox="0 0 64 64" width="40" height="40" role="img" aria-labelledby="weatherIconTitle">
  <title id="weatherIconTitle">Partly cloudy</title>
  <circle cx="24" cy="22" r="12" fill="#FCD116"/>
  <g stroke="#FCD116" stroke-width="3" stroke-linecap="round">
    <line x1="24" y1="2" x2="24" y2="6"/>
    <line x1="24" y1="38" x2="24" y2="42"/>
    <line x1="4" y1="22" x2="8" y2="22"/>
    <line x1="8" y1="6" x2="11" y2="9"/>
    <line x1="37" y1="9" x2="40" y2="6"/>
  </g>
  <path d="M18 46c-6 0-11-4.5-11-10s5-10 11-10c1.6-5.3 6.6-9 12.4-9 7.2 0 13 5.8 13 13 0 .7 0 1.3-.1 2 4.4.9 7.7 4.7 7.7 9.3 0 5.2-4.3 9.4-9.6 9.4H18z" fill="#ffffff" stroke="#B0BEC5" stroke-width="1.5"/>
</svg>
